<svg xmlns="http://www.w3.org/2000/svg" width="60" height="60" fill="none" xmlns:v="https://vecta.io/nano"><g clip-path="url(#A)"><path d="M50.37 30H29.63V9.259c0-1.778-1.185-2.963-2.963-2.963C11.852 6.296 0 18.148 0 32.963S11.852 59.63 26.667 59.63s26.667-11.852 26.667-26.667c0-1.778-1.185-2.963-2.963-2.963zM29.63 53.407C18.37 55.185 7.704 47.185 6.222 35.926 4.444 24.667 12.444 14 23.704 12.519v20.444c0 1.778 1.185 2.963 2.963 2.963h20.444c-1.185 9.185-8.296 16.296-17.481 17.482zM38.519.37c-1.778 0-2.963 1.185-2.963 2.963v17.778c0 1.778 1.185 2.963 2.963 2.963h17.778c1.778 0 2.963-1.185 2.963-2.963A20.61 20.61 0 0 0 38.519.37zm2.963 17.778V6.593a14.53 14.53 0 0 1 11.556 11.556H41.481z" fill="#ac3df0"/></g><defs><clipPath id="A"><path fill="#fff" d="M0 0h60v60H0z"/></clipPath></defs></svg>