<svg xmlns="http://www.w3.org/2000/svg" width="60" height="60" fill="none" xmlns:v="https://vecta.io/nano"><path d="M56.667 43.333H3.333c-.707 0-1.386.281-1.886.781S.667 45.293.667 46s.281 1.386.781 1.886 1.178.781 1.886.781h53.333c.707 0 1.386-.281 1.886-.781s.781-1.178.781-1.886-.281-1.386-.781-1.886-1.178-.781-1.886-.781zm0 10.667H3.333c-.707 0-1.386.281-1.886.781s-.781 1.178-.781 1.886.281 1.386.781 1.886 1.178.781 1.886.781h53.333c.707 0 1.386-.281 1.886-.781s.781-1.178.781-1.886-.281-1.386-.781-1.886S57.374 54 56.667 54zM14 16.667c-.527 0-1.043.156-1.482.449s-.78.71-.982 1.197-.255 1.024-.152 1.541.357.992.73 1.365.848.627 1.365.73 1.053.05 1.541-.152.904-.544 1.197-.982.449-.954.449-1.482c0-.707-.281-1.386-.781-1.886s-1.178-.781-1.886-.781zm37.333-16H8.667a8 8 0 0 0-8 8V30a8 8 0 0 0 8 8h42.667a8 8 0 0 0 8-8V8.667a8 8 0 0 0-8-8zM54 30c0 .707-.281 1.386-.781 1.886s-1.178.781-1.886.781H8.667c-.707 0-1.386-.281-1.886-.781S6 30.707 6 30V8.667c0-.707.281-1.386.781-1.886S7.959 6 8.667 6h42.667c.707 0 1.386.281 1.886.781S54 7.959 54 8.667V30zM30 11.333a8 8 0 0 0-7.391 4.939 8 8 0 0 0 1.734 8.718 8 8 0 0 0 8.718 1.734A8 8 0 0 0 38 19.333a8 8 0 0 0-8-8zM30 22c-.527 0-1.043-.156-1.482-.449s-.78-.709-.982-1.197-.255-1.023-.152-1.541.357-.992.73-1.365.848-.627 1.365-.73 1.053-.05 1.541.152.904.544 1.197.982.449.954.449 1.482c0 .707-.281 1.386-.781 1.886S30.707 22 30 22zm16-5.333c-.527 0-1.043.156-1.481.449s-.78.71-.982 1.197-.255 1.024-.152 1.541.357.992.73 1.365.848.627 1.365.73 1.053.05 1.541-.152.904-.544 1.197-.982.449-.954.449-1.482c0-.707-.281-1.386-.781-1.886s-1.178-.781-1.886-.781z" fill="#10abed" fill-opacity=".91"/></svg>