<svg xmlns="http://www.w3.org/2000/svg" width="64" height="64" fill="none" xmlns:v="https://vecta.io/nano"><path d="M30.667 53.333h-16c-.707 0-1.386-.281-1.886-.781S12 51.374 12 50.667V13.333c0-.707.281-1.385.781-1.886s1.178-.781 1.886-.781H28v8a8 8 0 0 0 8 8h8V40c0 .707.281 1.386.781 1.886s1.178.781 1.886.781 1.386-.281 1.886-.781.781-1.178.781-1.886V24v-.16c-.028-.245-.081-.486-.16-.72v-.24a2.85 2.85 0 0 0-.507-.747l-16-16c-.22-.207-.473-.378-.747-.507-.088-.015-.179-.015-.267 0-.259-.139-.538-.238-.827-.293h-16.16a8 8 0 0 0-8 8v37.333a8 8 0 0 0 8 8h16c.707 0 1.386-.281 1.886-.781s.781-1.178.781-1.886-.281-1.386-.781-1.886-1.178-.781-1.886-.781zm2.667-38.907l6.907 6.907H36c-.707 0-1.386-.281-1.886-.781s-.781-1.178-.781-1.886v-4.24zM20 37.333h16c.707 0 1.386-.281 1.886-.781s.781-1.178.781-1.886-.281-1.386-.781-1.886S36.707 32 36 32H20c-.707 0-1.386.281-1.886.781s-.781 1.178-.781 1.886.281 1.386.781 1.886 1.178.781 1.886.781zm10.667 5.333H20c-.707 0-1.386.281-1.886.781s-.781 1.178-.781 1.886.281 1.386.781 1.886S19.293 48 20 48h10.667c.707 0 1.386-.281 1.886-.781s.781-1.178.781-1.886-.281-1.386-.781-1.886-1.178-.781-1.886-.781zM20 26.667h2.667c.707 0 1.386-.281 1.886-.781s.781-1.178.781-1.886-.281-1.386-.781-1.886-1.178-.781-1.886-.781H20c-.707 0-1.386.281-1.886.781s-.781 1.178-.781 1.886.281 1.386.781 1.886 1.178.781 1.886.781zM56.56 43.44a2.67 2.67 0 0 0-.868-.584c-.325-.135-.673-.205-1.026-.205s-.701.07-1.026.205-.62.334-.868.584L44 52.24l-3.44-3.467a2.68 2.68 0 0 0-.869-.58c-.325-.135-.673-.204-1.025-.204s-.7.069-1.025.204a2.68 2.68 0 0 0-.869.58c-.249.249-.446.544-.58.869s-.204.673-.204 1.025.069.7.204 1.025.332.62.58.869l5.333 5.333c.248.25.543.448.868.584s.673.205 1.026.205.7-.07 1.026-.205.62-.334.868-.584L56.56 47.227a2.67 2.67 0 0 0 .584-.868c.135-.325.205-.673.205-1.026s-.07-.701-.205-1.026-.334-.62-.584-.868z" fill="#1ecbe1"/></svg>