<?xml version="1.0" standalone="no"?>
<!DOCTYPE svg PUBLIC "-//W3C//DTD SVG 20010904//EN"
 "http://www.w3.org/TR/2001/REC-SVG-20010904/DTD/svg10.dtd">
<svg version="1.0" xmlns="http://www.w3.org/2000/svg"
 width="260.000000pt" height="260.000000pt" viewBox="0 0 260.000000 260.000000"
 preserveAspectRatio="xMidYMid meet">
<metadata>
Created by potrace 1.11, written by Peter Selinger 2001-2013
</metadata>
<g transform="translate(0.000000,260.000000) scale(0.100000,-0.100000)"
fill="#000000" stroke="none">
<path d="M361 2584 c-169 -45 -301 -180 -346 -351 -22 -86 -22 -1780 0 -1866
45 -173 178 -307 350 -352 89 -23 1781 -23 1870 0 172 45 305 179 350 352 23
87 22 1781 0 1868 -45 172 -179 305 -352 350 -84 22 -1790 21 -1872 -1z m1520
-362 c290 -76 441 -408 308 -681 -27 -57 -66 -100 -288 -323 -242 -242 -261
-259 -336 -295 -79 -38 -81 -38 -205 -38 -123 0 -126 0 -200 36 -41 20 -91 51
-110 67 l-35 31 106 107 107 107 53 -27 c62 -31 99 -32 154 -7 49 23 469 443
485 484 44 120 -43 247 -169 247 -62 0 -91 -16 -167 -92 l-71 -70 -41 27 c-59
39 -169 75 -232 75 l-55 0 145 144 c114 112 159 149 210 174 109 53 222 65
341 34z m-440 -544 c41 -20 90 -49 109 -66 l35 -30 -106 -108 -107 -107 -53
27 c-62 31 -99 32 -154 7 -49 -23 -469 -443 -485 -484 -44 -120 43 -247 169
-247 62 0 91 16 167 92 l71 70 41 -27 c59 -39 169 -75 232 -75 l55 0 -145
-144 c-167 -164 -226 -201 -355 -219 -383 -55 -674 342 -505 691 28 58 65 100
289 323 323 324 351 341 562 335 98 -2 111 -5 180 -38z"/>
</g>
</svg>
